<svg version="1.0" xmlns="http://www.w3.org/2000/svg"
     viewBox="0 0 2400 1669"
     preserveAspectRatio="xMidYMid" id="svg-car">
    <style>
        path {
    fill:white;
    stroke:black;
    stroke-width:70;
    stroke-linejoin:round;
    stroke-linecap:round;
}

.nostrok {
    fill:black;
    stroke:black;
    stroke-width:0;
}

.strok50 {
    stroke-width:50;
}
    </style>
    <rect width="100%" height="100%" style="fill:rgb(0,0,255);opacity: 0.0; stroke-width:3;stroke:rgb(0,0,0)" onclick="reset()" />
    <g transform="translate(0,0) scale(0.1,0.1)"
           fill="#000000" stroke="none" id="main-g">


        <!-- RH FRONT WHEEL -->
        <g id="rh-front-wheel-group">
            <path class="selectable" id="rh-front-wheel" d="M6303 3055 c-103 -19 -195 -51 -303 -106 -314 -161 -535 -464 -590 -811 -18 -113 -9 -341 19 -446 140 -533 646 -889 1182 -833 503 53 899 421 990 921 17 95 14 300 -6 395 -47 223 -137 394 -293 557 -164 170 -375 284 -601 323 -101 18 -300 18 -398 0z"/>
            <path class="selectable" id="rh-front-wheel-rim" d="M6400 2613 c-196 -32 -388 -174 -478 -353 -125 -250 -84 -541 106 -742 77 -81 145 -128 249 -169 67 -28 94 -33 193 -36 85 -4 133 -1 184 11 167 39 318 149 414 301 80 126 112 325 78 479 -55 245 -261 451 -501 501 -65 14 -187 18 -245 8z"/>
        </g>

        <!-- RH BACK WHEEL -->
        <g id="rh-back-wheel">
            <path class="selectable" d="M16275 3050 c-382 -81 -690 -348 -820 -713 -173 -483 10 -1022 440 -1303 510 -333 1196 -188 1531 322 93 141 144 276 169 444 36 232 2 439 -105 655 -155 312 -432 526 -767 594 -132 27 -320 27 -448 1z"/>
            <path class="selectable" d="M16365 2605 c-90 -20 -156 -48 -234 -99 -188 -126 -304 -362 -287 -588 13 -165 76 -301 196 -419 136 -135 298 -196 494 -186 176 9 304 66 432 193 78 77 140 187 170 299 20 78 20 241 -1 320 -48 186 -173 338 -350 426 -132 65 -282 85 -420 54z"/>
        </g>


        <g id="fl-wheel">
            <!-- FL WHEEL !-->
            <path class="selectable" d="M6380 15829 c-462 -57 -833 -382 -952 -834 -27 -102 -36 -331 -18 -443 73 -460 434 -830 893 -917 165 -31 395 -15 553 39 489 166 802 644 753 1152 -34 360 -223 661 -535 851 -201 122 -466 180 -694 152z"/>
            <!-- FL WHEEL RIM!-->
            <path class="selectable" d="M6355 15365 c-140 -38 -231 -91 -327 -193 -147 -156 -208 -373 -163 -587 38 -182 179 -363 347 -444 99 -48 193 -71 293 -71 304 0 574 218 641 516 34 154 2 353 -78 479 -95 150 -247 262 -409 300 -78 18 -236 18 -304 0z"/>
        </g>

        <g id="rl-wheel">
            <!-- RL WHEEL !-->
            <path class="selectable" d="M16373 15829 c-626 -73 -1072 -662 -968 -1280 72 -433 383 -778 806 -895 72 -20 127 -27 236 -31 301 -12 526 61 755 246 432 348 534 995 229 1457 -189 286 -481 466 -814 503 -107 12 -140 12 -244 0z"/>
            <!-- RL WHEEL RIM!-->
            <path class="selectable" d="M16332 15360 c-329 -86 -543 -423 -478 -755 20 -102 88 -241 156 -317 69 -77 182 -151 283 -184 70 -23 100 -28 202 -28 133 -1 194 13 300 66 165 83 293 243 340 423 21 79 21 242 0 320 -63 237 -242 417 -473 476 -98 25 -232 24 -330 -1z"/>
        </g>

        <!-- FRONT RIGHT SIDE -->
        <g id="fron-right-side">
            <path class="selectable" d="M3981 14761 l-133 -278 -58 -6 c-119 -13 -227 -73 -256 -144 -17 -38 -18 -114 -4 -163 6 -19 15 -116 20 -215 12 -243 36 -307 132 -361 l53 -29 265 5 c146 2 310 5 365 5 l100 0 97 -274 c54 -151 96 -276 95 -278 -4 -3 -564 -43 -608 -43 -16 0 -29 -3 -29 -7 0 -13 137 -97 235 -146 247 -123 571 -225 955 -301 328 -66 525 -88 1400 -161 1050 -88 1414 -143 1736 -265 59 -22 109 -40 112 -40 14 0 -13 114 -53 220 -185 490 -241 1132 -159 1825 48 404 134 700 238 822 27 31 36 50 36 77 l0 36 -325 0 c-252 0 -326 -3 -329 -12 -2 -7 -9 -59 -15 -115 -7 -56 -25 -155 -41 -220 -146 -595 -469 -985 -926 -1118 -152 -44 -269 -58 -454 -51 -170 5 -250 18 -381 61 -225 75 -431 231 -583 444 -168 234 -304 616 -341 954 l-6 57 -502 0 -502 0 -134 -279z"/>
            <path class="selectable" d="M7189 13058 c-7 -13 -12 -48 -12 -78 0 -97 4 -100 147 -100 148 0 151 2 151 100 0 98 -3 100 -151 100 -118 0 -124 -1 -135 -22z"/>
        </g>

        <!-- FRONT RIGHT DOOR -->
        <g id="front-right-door">
            <path class="selectable" d="M8420 15004 c0 -22 -9 -47 -25 -68 -109 -143 -193 -490 -247 -1021 -7 -67 -12 -257 -12 -430 0 -267 3 -333 23 -480 37 -280 81 -478 153 -695 23 -68 42 -144 42 -167 l1 -43 75 -33 c41 -19 156 -83 255 -144 506 -311 1817 -1049 1934 -1088 172 -58 445 -102 811 -130 221 -17 1146 -42 1157 -31 14 14 -69 1490 -92 1626 -40 241 -95 1245 -75 1365 5 28 14 113 20 190 22 281 68 636 117 915 14 80 28 173 30 208 l5 62 -2086 0 -2086 0 0 -36z"/>
            <path class="selectable" d="M11504 13079 c-15 -17 -19 -36 -19 -99 0 -126 -15 -120 304 -120 146 0 271 4 277 8 38 25 49 144 20 201 l-17 31 -273 0 c-265 0 -273 -1 -292 -21z"/>
            <path class="selectable" d="M9260 12033 l0 -248 178 -109 c492 -303 1058 -604 1316 -700 158 -60 339 -90 691 -116 184 -13 633 -30 813 -30 l142 0 0 29 c0 17 -22 331 -50 698 -27 367 -50 680 -50 696 l0 27 -1520 0 -1520 0 0 -247z"/>
            <path class="selectable" d="M8648 12252 c29 -41 116 -120 211 -192 80 -60 370 -258 412 -280 19 -10 19 -5 19 245 l0 255 -331 0 -330 0 19 -28z"/>
        </g>

        <!-- REAR RIGHT DOOR -->
        <g id="rear-right-door">
            <path class="selectable" d="M12510 14998 c0 -24 -16 -135 -34 -248 -40 -235 -87 -603 -112 -865 -35 -366 -8 -1175 51 -1568 21 -140 31 -289 65 -932 16 -313 35 -603 42 -642 l12 -73 450 -2 c805 -3 1037 7 1624 69 l162 17 1 35 c0 33 9 43 95 116 240 203 630 634 920 1020 227 302 346 483 423 645 61 128 81 204 81 304 0 101 -26 169 -93 242 -48 53 -184 154 -207 154 -5 0 -10 6 -10 14 0 7 -27 24 -60 36 -204 76 -453 272 -603 472 -110 147 -258 424 -306 571 -7 20 -16 37 -21 37 -4 0 -10 15 -13 33 -3 17 -19 70 -37 117 -45 122 -130 421 -130 458 l0 32 -1150 0 -1150 0 0 -42z"/>
            <path class="selectable" d="M15212 13087 c-40 -47 -32 -190 12 -219 6 -4 131 -8 277 -8 319 0 304 -6 304 120 0 126 16 120 -310 120 -211 0 -275 -3 -283 -13z"/>
            <g id="rear-right-door-mirror">
                <path class="selectable" d="M12636 12282 c-5 -9 53 -1372 60 -1409 l4 -23 733 0 c1014 0 1081 8 1274 142 89 62 212 176 314 292 l89 100 0 453 0 453 -1234 0 c-679 0 -1237 -4 -1240 -8z"/>
                <path class="selectable" d="M15080 11824 c0 -308 3 -463 10 -459 16 10 199 249 287 375 134 191 333 515 333 540 0 6 -119 10 -315 10 l-315 0 0 -466z"/>
            </g>
        </g>

        <!-- REAR RIGHT SIDE -->
        <g id="rear-right-side">
            <path class="selectable" d="M14740 14992 c0 -73 129 -512 151 -512 5 0 9 -12 9 -26 0 -34 89 -250 162 -393 113 -221 236 -387 394 -532 107 -98 197 -158 412 -277 193 -107 251 -149 298 -218 125 -181 23 -440 -396 -1004 -259 -348 -452 -572 -730 -851 -118 -118 -257 -248 -307 -289 -89 -69 -93 -74 -93 -112 l0 -39 43 5 c23 3 114 15 202 26 501 64 951 153 1227 244 191 63 513 213 1273 596 508 255 898 446 984 480 77 30 213 64 465 116 412 84 728 175 893 256 113 55 221 157 246 232 35 102 8 246 -45 246 -13 0 -106 -12 -207 -26 -131 -19 -185 -23 -190 -15 -4 6 -22 151 -40 323 -18 172 -35 320 -37 328 -3 13 18 19 120 33 248 34 403 104 456 206 53 106 78 386 44 502 -45 151 -133 238 -241 239 -70 0 -80 17 -133 231 -37 149 -103 233 -204 260 -28 8 -290 12 -840 12 l-799 1 -22 -109 c-61 -303 -188 -618 -339 -844 -189 -281 -415 -453 -694 -528 -88 -24 -115 -27 -287 -27 -212 -1 -299 14 -459 79 -414 167 -726 587 -876 1179 -21 83 -41 175 -45 204 l-7 52 -194 0 -194 0 0 -48z"/>
            <path class="selectable" d="M17745 13231 c-50 -23 -100 -73 -128 -125 -29 -57 -29 -165 0 -221 27 -52 88 -110 135 -130 60 -24 155 -20 216 11 243 121 154 485 -117 484 -43 0 -80 -7 -106 -19z"/>
            <path class="selectable" d="M16520 12299 c-74 -4 -148 -12 -165 -19 -35 -13 -415 -393 -903 -901 -354 -369 -388 -406 -378 -416 17 -18 170 -2 301 31 368 92 943 283 1192 395 207 94 657 347 1253 705 l335 201 -60 6 c-83 9 -1410 8 -1575 -2z"/>
        </g>

        <!-- REAR BUMPER -->
        <g id="rear-bumper">
            <path class="selectable" d="M21225 11434 c-170 -97 -313 -179 -318 -183 -6 -6 -10 -2825 -7 -5416 l0 -450 318 -132 c174 -73 324 -135 334 -138 10 -4 73 27 171 84 l154 90 49 -47 c72 -69 131 -94 234 -100 79 -4 89 -2 140 25 43 22 62 41 88 83 32 54 33 55 98 67 204 38 363 132 421 251 l28 57 3 2737 c2 2733 2 2737 -18 2791 -23 61 -90 131 -158 166 -61 31 -178 60 -268 67 l-82 7 -5 40 c-7 51 -54 101 -115 122 -56 18 -173 19 -225 1 -54 -20 -116 -65 -141 -103 -12 -18 -25 -33 -29 -33 -5 0 -85 43 -179 95 -94 52 -173 95 -177 95 -3 -1 -145 -80 -316 -176z"/>
            <g id="rear-bumper-decrotar">
                <path class="nostrok freezline" d="M22108 10983 c-47 -54 -15 -132 53 -133 62 0 98 73 59 123 -26 33 -87 38 -112 10z"/>
                <path class="nostrok freezline" d="M22130 9267 c-14 -7 -31 -26 -39 -42 -12 -25 -12 -32 0 -54 23 -41 60 -57 96 -42 29 12 53 46 53 76 0 19 -41 62 -65 69 -11 3 -31 0 -45 -7z"/>
                <path class="nostrok freezline" d="M22108 7520 c-24 -25 -29 -36 -23 -58 20 -81 113 -92 147 -17 21 45 -24 105 -78 105 -9 0 -29 -14 -46 -30z"/>
                <path class="nostrok freezline" d="M22119 5807 c-63 -48 -36 -137 42 -137 72 0 103 86 48 133 -24 20 -67 22 -90 4z"/>
                <path class="nostrok freezline" d="M21252 9820 l3 -390 -58 0 -57 0 2 -1077 3 -1078 53 -3 52 -3 0 -395 c0 -387 0 -394 20 -394 20 0 20 7 20 395 l0 395 45 0 45 0 0 1080 0 1080 -47 0 -48 0 3 390 c2 387 2 390 -18 390 -20 0 -20 -3 -18 -390z m98 -1465 l0 -1045 -85 0 -85 0 0 1045 0 1045 85 0 85 0 0 -1045z"/>
                <path class="nostrok freezline" d="M21690 8340 c0 -1656 2 -1870 15 -1870 13 0 15 214 15 1870 0 1656 -2 1870 -15 1870 -13 0 -15 -214 -15 -1870z"/>
                <path class="nostrok freezline" d="M22340 8345 l0 -3015 35 0 35 0 0 3015 0 3015 -35 0 -35 0 0 -3015z"/>
                <path class="nostrok freezline" d="M21931 10213 c-1 -8 -15 -13 -37 -13 l-37 0 7 -52 c3 -29 6 -871 6 -1870 l0 -1818 34 0 c30 0 35 -3 38 -27 2 -16 2 827 0 1872 -1 1045 -4 1905 -6 1910 -3 6 -5 4 -5 -2z"/>

            </g>

            <path class="selectable" d="M22623 11018 c-27 -6 -51 -20 -68 -39 -25 -30 -25 -31 -25 -223 0 -211 3 -221 62 -252 41 -21 116 -21 157 1 52 27 61 62 61 250 0 121 -4 175 -14 200 -23 54 -94 80 -173 63z"/>

            <path class="selectable" d="M22588 6155 c-52 -29 -58 -56 -58 -259 0 -183 0 -185 25 -215 47 -55 151 -66 209 -20 40 32 48 77 44 266 l-3 173 -32 32 c-29 28 -40 32 -95 35 -43 2 -72 -2 -90 -12z"/>

            <g>
                <path class="selectable"   d="M21225 11434 c-170 -97 -313 -179 -316 -182 -4 -4 -9 -256 -12 -559 l-4 -553 530 0 530 0 -6 173 c-4 94 -7 369 -7 609 l0 437 -32 35 c-27 28 -347 217 -367 216 -3 -1 -145 -80 -316 -176z"/>
                <path class="nostrok freezline" d="M20930 11195 c0 -15 6 -25 14 -25 7 0 94 -89 192 -197 99 -109 196 -216 216 -239 l37 -40 -205 -222 c-142 -154 -206 -231 -210 -252 -6 -30 11 -45 18 -16 4 18 406 456 419 456 4 0 99 -100 209 -222 186 -206 237 -254 228 -215 -1 8 -93 114 -203 236 -110 122 -201 226 -203 231 -4 11 426 480 440 480 4 0 8 7 8 16 0 40 -55 -8 -255 -226 -119 -129 -220 -236 -223 -237 -4 -1 -83 84 -177 188 -300 335 -305 339 -305 284z"/>
            </g>
            <g>
                <path class="selectable"  d="M20893 6338 c4 -99 7 -355 7 -567 l0 -386 318 -132 c174 -73 324 -135 334 -138 20 -8 321 166 361 208 l27 29 0 397 c0 218 3 480 7 584 l6 187 -533 0 -533 0 6 -182z"/>
                <path class="nostrok freezline" d="M20950 6464 c0 -29 24 -60 213 -269 105 -115 199 -220 210 -232 l19 -21 -192 -209 c-106 -114 -204 -220 -219 -234 -36 -34 -46 -69 -20 -69 10 0 19 4 19 9 0 9 426 476 434 476 3 0 106 -112 230 -250 125 -137 233 -251 241 -253 11 -3 15 5 15 27 0 23 -5 31 -18 31 -10 0 -107 99 -230 236 -213 234 -214 235 -195 256 10 12 105 116 211 230 120 131 192 217 192 230 0 28 1 30 -237 -229 -113 -122 -207 -223 -208 -223 -11 0 -431 476 -433 491 -4 23 -32 26 -32 3z"/>
            </g>
        </g>

        <!-- FRONT BUMPER -->
        <g id="front-bumper">
            <path class="selectable"  d="M1018 11566 c-78 -28 -128 -82 -128 -138 0 -26 -3 -28 -39 -28 -66 0 -208 -29 -277 -56 -90 -36 -166 -108 -194 -180 l-20 -55 2 -2742 3 -2742 23 -42 c74 -139 207 -214 478 -268 12 -3 27 -18 34 -35 35 -86 113 -130 227 -130 104 0 173 28 245 101 l58 57 247 4 c276 5 319 13 395 71 23 18 56 55 73 82 l30 48 3 787 2 787 -56 5 c-73 6 -100 34 -109 110 -3 29 -5 564 -3 1188 3 1072 4 1138 22 1183 22 59 49 79 93 71 l33 -6 0 203 c0 112 5 445 10 740 8 455 8 544 -4 584 -30 97 -102 167 -214 207 -77 27 -326 45 -445 32 l-87 -9 -32 47 c-40 58 -103 105 -165 124 -58 18 -156 17 -205 0z"/>
            <g id="front-bumer-decrotor">
                <path class="nostrok freezline" d="M1085 10985 c-30 -30 -32 -64 -4 -99 33 -42 99 -35 124 15 40 76 -59 146 -120 84z"/>
                <path class="nostrok freezline" d="M1085 9255 c-14 -13 -25 -36 -25 -50 0 -33 41 -75 74 -75 39 0 57 11 71 43 34 81 -59 144 -120 82z"/>
                <path class="nostrok freezline" d="M1081 7524 c-28 -35 -26 -69 4 -99 49 -50 128 -14 128 56 0 66 -91 95 -132 43z"/>
                <path class="nostrok freezline" d="M1090 5802 c-16 -17 -30 -37 -30 -46 0 -28 22 -64 47 -75 35 -16 49 -14 79 12 50 43 29 116 -38 132 -22 6 -33 1 -58 -23z"/>
                <path class="nostrok freezline" d="M1354 10053 c3 -720 9 -2072 12 -3005 l7 -1698 38 0 39 0 -7 545 -6 545 206 0 207 0 0 1890 0 1890 -210 0 -210 0 0 570 0 570 -41 0 -42 0 7 -1307z m166 -1723 l0 -1850 -40 0 -40 0 0 988 c0 543 -3 1375 -7 1850 l-6 862 46 0 47 0 0 -1850z m140 0 l0 -1850 -55 0 -55 0 0 1850 0 1850 55 0 55 0 0 -1850z m160 0 l0 -1850 -60 0 -60 0 0 1850 0 1850 60 0 60 0 0 -1850z"/>
                <path class="nostrok freezline" d="M890 8335 l0 -3005 35 0 35 0 0 3005 0 3005 -35 0 -35 0 0 -3005z"/>
            </g>
            <path class="selectable" d="M574 11011 c-46 -28 -54 -64 -54 -253 0 -185 6 -210 57 -244 40 -27 133 -26 170 2 49 36 53 55 53 247 0 197 -6 224 -60 252 -41 21 -128 19 -166 -4z"/>
            <path class="selectable" d="M1350 10625 l0 -435 404 0 405 0 5 53 c3 28 7 224 9 435 l4 382 -413 0 -414 0 0 -435z"/>

            <path class="selectable" d="M595 6170 c-11 -4 -31 -20 -45 -35 -25 -27 -25 -27 -25 -227 l0 -200 32 -28 c60 -54 153 -52 210 5 l33 33 0 186 c0 210 -5 232 -64 260 -36 17 -107 20 -141 6z"/>
            <path class="selectable" d="M1370 6065 l0 -415 405 0 405 0 0 415 0 415 -405 0 -405 0 0 -415z"/>
        </g>

        <!-- FRONT BANET -->
        <g id='front-banet'>
            <path class="selectable" d="M4165 11048 c-2 -7 -49 -347 -105 -756 l-101 -743 -49 -78 -50 -78 0 -1036 0 -1037 50 -102 51 -103 112 -740 112 -740 2065 -3 c1583 -2 2074 0 2103 9 37 12 37 12 37 68 0 31 -5 72 -10 91 -6 19 -31 121 -56 225 -87 364 -145 686 -160 890 -7 97 22 2858 31 2990 14 192 71 519 151 860 24 104 44 213 44 242 l0 53 -2110 0 c-1680 0 -2111 -3 -2115 -12z"/>
            <path class="nostrok" d="M8324 10965 c-3 -14 -10 -25 -15 -25 -5 0 -9 -5 -9 -11 0 -7 -31 -73 -69 -148 -208 -411 -387 -858 -459 -1151 l-26 -105 -4 -1085 c-2 -719 0 -1125 8 -1203 14 -161 41 -280 110 -487 80 -241 168 -450 321 -757 103 -207 135 -263 150 -263 10 0 19 1 19 3 0 2 -30 59 -66 128 -191 357 -372 790 -443 1059 -63 239 -61 184 -61 1430 0 1247 -3 1183 61 1405 76 265 346 901 454 1070 45 71 75 131 75 150 0 26 -39 18 -46 -10z"/>
        </g>

        <!-- FRONT MIRROR -->
        <g id="front-mirror">
            <path class="selectable" d="M8317 11008 c-3 -23 -12 -72 -22 -108 -9 -36 -20 -85 -25 -110 -5 -25 -22 -107 -39 -182 -83 -380 -111 -590 -117 -893 -15 -760 -31 -2761 -23 -2845 21 -226 86 -576 160 -865 58 -229 69 -275 69 -317 0 -33 3 -38 23 -38 13 0 455 104 983 230 527 127 989 238 1027 246 l67 16 0 51 c0 29 -13 145 -30 258 -78 539 -75 467 -75 1894 0 1413 -4 1314 67 1785 38 259 47 380 26 380 -15 0 -1102 292 -1663 447 -170 47 -335 88 -366 90 l-57 5 -5 -44z"/>
            <path class="selectable nostrok" d="M8570 10178 l0 -293 -192 -192 c-106 -106 -198 -193 -205 -193 -7 0 -13 -11 -13 -25 0 -14 6 -25 12 -25 7 0 99 87 205 192 l193 193 0 -493 c0 -485 0 -492 20 -492 20 0 20 7 20 810 0 803 0 810 -20 810 -20 0 -20 -7 -20 -292z"/>
            <path class="selectable nostrok" d="M8567 8723 c-4 -3 -7 -135 -7 -292 l0 -286 -202 -202 c-111 -112 -208 -203 -215 -203 -7 0 -13 -7 -13 -15 0 -9 9 -15 22 -15 16 0 80 57 215 192 l193 193 0 -493 c0 -485 0 -492 20 -492 20 0 20 7 20 810 0 668 -2 810 -13 810 -8 0 -17 -3 -20 -7z"/>
        </g>

        <!-- Roof Top -->
        <g>
            <path class="selectable" d="M10380 10496 c0 -9 -4 -16 -8 -16 -14 0 -31 -83 -66 -331 -73 -510 -69 -430 -73 -1664 -4 -1170 0 -1374 37 -1707 26 -225 67 -513 80 -552 6 -16 10 -39 10 -51 0 -34 38 -37 254 -20 230 18 770 49 1141 67 338 16 1703 16 2250 -1 702 -21 1415 -54 1450 -67 24 -10 19 52 -20 228 -44 199 -98 494 -122 663 -17 119 -18 227 -18 1320 0 1091 1 1200 18 1310 26 173 63 365 108 560 21 93 39 194 39 223 l0 53 -52 -5 c-150 -16 -1115 -52 -1818 -67 -575 -12 -1580 -7 -1995 11 -422 18 -1066 49 -1142 56 -63 5 -73 3 -73 -10z"/>
            <path class="selectable" d="M11442 9640 c-163 -25 -307 -157 -369 -339 l-22 -66 -1 -905 c0 -981 -1 -951 56 -1067 34 -70 128 -171 192 -206 97 -53 135 -57 529 -57 230 0 381 4 415 11 153 33 286 156 347 322 l26 72 3 882 c3 968 3 960 -57 1089 -51 109 -158 206 -276 249 -45 17 -90 19 -420 21 -203 1 -394 -1 -423 -6z"/>
        </g>

        <!--  Trunk -->
        <g id="trunk">
            <path class="selectable" d="M17060 10810 c-734 -137 -1407 -262 -1495 -277 l-160 -29 -3 -40 c-2 -21 -7 -41 -11 -44 -10 -6 -81 -315 -115 -502 -57 -306 -56 -287 -56 -1560 0 -1114 1 -1186 20 -1331 21 -164 72 -448 121 -664 16 -73 29 -149 29 -168 0 -28 4 -35 19 -35 10 0 175 -29 367 -65 192 -35 861 -159 1486 -275 l1138 -210 794 0 793 0 32 198 c44 274 105 704 138 977 l28 230 0 1365 c0 1362 0 1365 -23 1550 -42 341 -117 824 -165 1065 l-12 60 -795 1 -795 2 -1335 -248z m870 -2470 l0 -2210 -284 0 c-389 0 -545 18 -986 116 -313 70 -1032 253 -1046 266 -5 5 -48 277 -71 448 -17 124 -18 234 -18 1375 l0 1240 28 165 c15 91 39 226 53 301 l26 136 226 63 c309 85 772 201 972 244 287 61 321 64 728 65 l372 1 0 -2210z"/>
            <path class="nostrok freezline" d="M18410 10994 c0 -14 17 -56 39 -92 173 -299 289 -655 348 -1067 17 -121 18 -223 18 -1460 0 -1236 -1 -1339 -18 -1460 -55 -390 -168 -766 -333 -1114 -55 -117 -66 -161 -39 -161 9 0 15 9 15 22 0 12 18 56 39 98 131 252 260 640 321 965 53 285 53 279 57 1500 5 1406 -1 1556 -82 1920 -55 248 -194 606 -305 787 -17 26 -30 57 -30 68 0 11 -7 20 -15 20 -9 0 -15 -10 -15 -26z"/>

            <path class="selectable" d="M17135 10619 c-214 -28 -876 -185 -1350 -321 l-220 -63 -32 -165 c-17 -91 -44 -246 -60 -345 l-28 -180 0 -1220 c0 -1207 0 -1222 22 -1380 24 -173 74 -488 78 -493 11 -13 829 -221 1125 -286 445 -98 454 -99 923 -103 l417 -5 0 2286 0 2286 -402 -1 c-222 -1 -434 -6 -473 -10z"/>
            <path class="nostrok selectable" d="M17440 9030 c0 -713 2 -810 15 -810 13 0 15 62 15 497 l0 497 223 -222 c222 -221 267 -255 267 -202 0 12 -7 20 -18 20 -9 0 -120 102 -245 228 l-227 227 0 288 c0 248 -2 287 -15 287 -13 0 -15 -97 -15 -810z"/>
        </g>

        <!-- FRONT LEFT SIDE -->
        <g id="front-left-side">
            <path class="selectable" d="M8378 4609 c-88 -38 -283 -94 -433 -124 -287 -57 -582 -90 -1365 -155 -818 -68 -1063 -96 -1385 -161 -358 -72 -728 -190 -958 -305 -65 -33 -221 -134 -215 -139 2 -3 146 -14 319 -26 173 -12 315 -23 317 -24 1 -1 -42 -128 -97 -281 -99 -279 -99 -279 -128 -278 -15 1 -172 5 -348 9 -368 9 -386 6 -451 -59 -59 -58 -73 -114 -84 -326 -6 -96 -14 -193 -20 -215 -14 -58 -12 -132 4 -164 20 -37 77 -87 124 -107 20 -9 70 -22 111 -29 40 -7 77 -17 81 -22 4 -4 65 -128 135 -275 l128 -268 503 0 503 0 6 58 c40 360 176 728 360 974 254 338 623 507 1060 485 510 -26 878 -271 1109 -738 103 -207 187 -500 203 -701 l6 -78 328 0 329 0 0 34 c0 25 -10 46 -37 78 -64 76 -148 283 -169 420 -4 21 -10 38 -15 38 -5 0 -9 16 -9 35 0 19 -9 90 -20 157 -66 412 -80 908 -35 1266 34 272 118 616 194 801 28 68 42 152 24 150 -5 -1 -38 -14 -75 -30z"/>
            <path class="selectable" d="M7202 3811 c-30 -18 -36 -144 -9 -178 7 -9 47 -13 138 -13 l128 0 12 42 c11 43 6 106 -12 139 -9 17 -22 19 -127 19 -64 0 -123 -4 -130 -9z"/>
        </g>

        <!-- FRONT LEFT DOOR -->
        <g id="front-left-door">
            <path class="selectable" d="M11720 6009 c-373 -17 -652 -45 -870 -89 -183 -37 -274 -66 -375 -123 -1073 -598 -1439 -808 -1890 -1083 -44 -27 -110 -62 -147 -79 -67 -30 -67 -30 -68 -71 0 -22 -4 -44 -9 -50 -31 -32 -126 -368 -165 -584 -51 -279 -61 -395 -61 -715 0 -659 102 -1222 264 -1460 12 -16 21 -45 21 -62 l0 -33 2085 0 2085 0 0 38 c0 20 -11 100 -25 177 -33 184 -88 587 -117 855 -19 180 -23 266 -22 525 1 425 29 881 69 1145 8 52 19 163 25 245 13 191 70 1276 70 1333 l0 42 -347 -2 c-192 0 -427 -5 -523 -9z"/>
            <path class="selectable" d="M11522 3833 c-39 -15 -55 -132 -28 -198 19 -45 31 -47 323 -43 273 3 267 2 281 78 10 59 0 124 -23 150 -17 19 -29 20 -279 19 -144 0 -267 -3 -274 -6z"/>
            <g>
                <path class="selectable" d="M12045 5863 c-555 -10 -1049 -58 -1234 -120 -262 -88 -1002 -481 -1483 -790 l-68 -43 0 -250 0 -250 1515 0 c1204 0 1516 3 1520 13 4 13 105 1376 105 1420 l0 27 -112 -2 c-62 -1 -171 -3 -243 -5z"/>
                <path class="selectable" d="M9110 4812 c-96 -64 -213 -146 -260 -181 -85 -65 -220 -194 -220 -212 0 -5 135 -9 330 -9 l330 0 0 260 c0 143 -1 260 -2 260 -2 0 -82 -53 -178 -118z"/>
            </g>
        </g>

        <!-- REAR LEFT DOOR -->
        <g id="rear-left-door">
            <path class="selectable" d="M12589 6023 l-66 -4 -12 -162 c-6 -89 -23 -380 -36 -647 -29 -556 -38 -682 -65 -870 -42 -296 -76 -1035 -61 -1310 16 -264 66 -730 81 -740 4 -3 10 -50 13 -105 4 -55 21 -176 38 -270 17 -93 33 -189 36 -212 l5 -43 1144 0 1144 0 0 31 c0 51 135 500 160 534 4 6 19 47 34 91 39 118 172 382 256 509 94 141 286 335 414 419 94 62 242 136 314 157 23 7 42 18 42 24 0 7 9 15 20 18 11 3 20 11 20 19 0 7 14 22 30 32 50 29 128 114 158 169 25 48 27 60 26 167 0 101 -4 124 -28 190 -67 180 -192 380 -454 730 -325 433 -740 890 -984 1085 -31 25 -38 36 -38 66 0 44 14 41 -265 69 -478 48 -569 52 -1225 55 -349 1 -665 0 -701 -2z"/>
            <path class="selectable" d="M15216 3821 c-26 -28 -37 -91 -27 -146 15 -81 10 -80 284 -83 292 -4 304 -2 323 43 27 65 12 175 -26 195 -11 6 -128 10 -278 10 -243 0 -260 -1 -276 -19z m561 -133 c-3 -8 -6 -5 -6 6 -1 11 2 17 5 13 3 -3 4 -12 1 -19z"/>
            <g>
                <path class="selectable" d="M12696 5815 c-3 -16 -16 -302 -31 -635 -14 -333 -28 -642 -31 -687 l-6 -83 1241 0 1241 0 0 453 0 452 -109 120 c-188 207 -362 336 -498 369 -160 39 -209 41 -1016 41 l-787 0 -4 -30z"/>
                <path class="selectable" d="M15080 4878 l0 -468 315 0 c173 0 315 4 315 8 0 16 -164 288 -261 434 -93 138 -271 379 -338 458 l-30 35 -1 -467z"/>
            </g>
        </g>

        <!-- REAR LEFT SIDE -->
        <g id="rear-left-side">
            <path class="selectable" d="M14640 5921 c0 -38 4 -43 98 -118 195 -156 559 -538 818 -858 197 -245 437 -578 523 -729 107 -188 155 -349 132 -450 -25 -113 -97 -186 -288 -290 -194 -106 -308 -176 -378 -232 -70 -56 -165 -141 -165 -149 0 -2 -23 -28 -51 -57 -73 -76 -199 -269 -276 -422 -72 -144 -153 -337 -153 -366 0 -11 -4 -22 -10 -25 -19 -12 -160 -482 -160 -534 l0 -31 198 0 198 0 27 134 c14 74 49 203 77 287 176 534 485 897 880 1032 143 49 231 62 415 61 150 -1 182 -4 270 -27 119 -31 292 -115 386 -186 100 -76 229 -218 313 -344 158 -237 292 -577 350 -887 l12 -65 815 1 814 0 50 26 c92 48 130 107 171 266 49 192 52 197 127 207 71 10 90 18 137 61 46 42 86 113 106 189 31 114 4 396 -46 495 -51 100 -204 168 -466 206 -60 9 -109 17 -110 18 -3 5 73 666 77 671 5 4 270 -30 385 -50 30 -5 33 -3 53 44 49 115 13 243 -97 341 -140 125 -460 233 -1052 355 -304 62 -393 87 -539 152 -68 30 -460 222 -870 427 -1156 577 -1245 614 -1676 710 -258 57 -678 126 -950 156 -55 6 -110 13 -122 15 -21 5 -23 2 -23 -34z"/>
            <path class="selectable" d="M15078 5732 c-13 -5 84 -111 427 -467 606 -630 819 -839 870 -856 31 -9 240 -13 908 -16 477 -3 867 -1 867 4 0 20 -1111 671 -1412 827 -250 129 -595 258 -1078 400 -343 102 -518 134 -582 108z"/>
        </g>
        <g id='dynamic-elements'></g>
    </g>
    <image width="150" height="150" xlink:href="assets/img/delete.png" x="20" y="20" id="delete-image" style="display:none;" />
</svg>
